<svg width="51" height="51" viewBox="0 0 51 51" fill="none" xmlns="http://www.w3.org/2000/svg">
<path d="M22.5037 28.4962C23.375 29.325 23.375 30.685 22.5037 31.5137C21.675 32.3425 20.315 32.3425 19.4862 31.5137C17.4959 29.5204 16.378 26.8187 16.378 24.0018C16.378 21.185 17.4959 18.4833 19.4862 16.49L27.0087 8.96747C29.002 6.97715 31.7037 5.85925 34.5206 5.85925C37.3375 5.85925 40.0392 6.97715 42.0325 8.96747C44.0228 10.9608 45.1407 13.6625 45.1407 16.4793C45.1407 19.2962 44.0228 21.9979 42.0325 23.9912L38.8662 27.1575C38.8875 25.415 38.6112 23.6725 38.0162 22.015L39.015 20.995C39.6107 20.4057 40.0836 19.7041 40.4064 18.9308C40.7291 18.1575 40.8953 17.3279 40.8953 16.49C40.8953 15.652 40.7291 14.8224 40.4064 14.0491C40.0836 13.2759 39.6107 12.5743 39.015 11.985C38.4257 11.3893 37.7241 10.9163 36.9508 10.5936C36.1775 10.2708 35.3479 10.1046 34.51 10.1046C33.672 10.1046 32.8424 10.2708 32.0691 10.5936C31.2958 10.9163 30.5943 11.3893 30.005 11.985L22.5037 19.4862C21.908 20.0755 21.4351 20.7771 21.1123 21.5504C20.7896 22.3237 20.6234 23.1533 20.6234 23.9912C20.6234 24.8292 20.7896 25.6588 21.1123 26.4321C21.4351 27.2053 21.908 27.9069 22.5037 28.4962ZM28.4962 19.4862C29.325 18.6575 30.685 18.6575 31.5137 19.4862C33.504 21.4795 34.6219 24.1812 34.6219 26.9981C34.6219 29.8149 33.504 32.5167 31.5137 34.51L23.9912 42.0325C21.9979 44.0228 19.2962 45.1407 16.4793 45.1407C13.6625 45.1407 10.9608 44.0228 8.96747 42.0325C6.97715 40.0392 5.85925 37.3375 5.85925 34.5206C5.85925 31.7037 6.97715 29.002 8.96747 27.0087L12.1337 23.8425C12.1125 25.585 12.3887 27.3275 12.9837 29.0062L11.985 30.005C11.3893 30.5943 10.9163 31.2958 10.5936 32.0691C10.2708 32.8424 10.1046 33.672 10.1046 34.51C10.1046 35.3479 10.2708 36.1775 10.5936 36.9508C10.9163 37.7241 11.3893 38.4257 11.985 39.015C12.5743 39.6107 13.2759 40.0836 14.0491 40.4064C14.8224 40.7291 15.652 40.8953 16.49 40.8953C17.3279 40.8953 18.1575 40.7291 18.9308 40.4064C19.7041 40.0836 20.4057 39.6107 20.995 39.015L28.4962 31.5137C29.0919 30.9244 29.5649 30.2228 29.8876 29.4496C30.2104 28.6763 30.3766 27.8467 30.3766 27.0087C30.3766 26.1708 30.2104 25.3412 29.8876 24.5679C29.5649 23.7946 29.0919 23.093 28.4962 22.5037C28.2898 22.3103 28.1253 22.0767 28.0129 21.8171C27.9004 21.5576 27.8424 21.2778 27.8424 20.995C27.8424 20.7121 27.9004 20.4323 28.0129 20.1728C28.1253 19.9133 28.2898 19.6796 28.4962 19.4862Z" fill="#8FE1EF"/>
</svg>
