<svg width="39" height="40" viewBox="0 0 39 40" fill="none" xmlns="http://www.w3.org/2000/svg">
<path d="M14.1642 40L13.3881 33.6C12.9677 33.4333 12.5718 33.2333 12.2006 33C11.8294 32.7667 11.4652 32.5167 11.1082 32.25L5.33582 34.75L0 25.25L4.99627 21.35C4.96393 21.1167 4.94776 20.892 4.94776 20.676V19.326C4.94776 19.1087 4.96393 18.8833 4.99627 18.65L0 14.75L5.33582 5.25L11.1082 7.75C11.4639 7.48333 11.8358 7.23333 12.2239 7C12.6119 6.76667 13 6.56667 13.3881 6.4L14.1642 0H24.8358L25.6119 6.4C26.0323 6.56667 26.4288 6.76667 26.8013 7C27.1739 7.23333 27.5374 7.48333 27.8918 7.75L33.6642 5.25L39 14.75L34.0037 18.65C34.0361 18.8833 34.0522 19.1087 34.0522 19.326V20.674C34.0522 20.8913 34.0199 21.1167 33.9552 21.35L38.9515 25.25L33.6157 34.75L27.8918 32.25C27.5361 32.5167 27.1642 32.7667 26.7761 33C26.3881 33.2333 26 33.4333 25.6119 33.6L24.8358 40H14.1642ZM19.597 27C21.4726 27 23.0734 26.3167 24.3993 24.95C25.7251 23.5833 26.3881 21.9333 26.3881 20C26.3881 18.0667 25.7251 16.4167 24.3993 15.05C23.0734 13.6833 21.4726 13 19.597 13C17.6891 13 16.0799 13.6833 14.7696 15.05C13.4592 16.4167 12.8047 18.0667 12.806 20C12.806 21.9333 13.4611 23.5833 14.7715 24.95C16.0818 26.3167 17.6903 27 19.597 27Z" fill="#90E0EF"/>
</svg>
