<svg width="19" height="30" viewBox="0 0 19 30" fill="none" xmlns="http://www.w3.org/2000/svg">
<path d="M6.28501 30C4.55663 30 3.07704 29.3472 1.84622 28.0417C0.615408 26.7361 0 25.1667 0 23.3333C0 21.5 0.615408 19.9306 1.84622 18.625C3.07704 17.3194 4.55663 16.6667 6.28501 16.6667C6.88733 16.6667 7.44407 16.7433 7.95525 16.8967C8.46643 17.05 8.95719 17.2789 9.42752 17.5833V1.66667C9.42752 1.19444 9.57836 0.798889 9.88004 0.48C10.1817 0.161111 10.5546 0.00111111 10.9988 0H17.2838C17.729 0 18.1024 0.16 18.4041 0.48C18.7058 0.8 18.8561 1.19556 18.855 1.66667V5C18.855 5.47222 18.7042 5.86833 18.4025 6.18833C18.1008 6.50833 17.7279 6.66778 17.2838 6.66667H12.57V23.3333C12.57 25.1667 11.9546 26.7361 10.7238 28.0417C9.49299 29.3472 8.01339 30 6.28501 30Z" fill="#8FE1EF"/>
</svg>
