<svg width="44" height="42" viewBox="0 0 44 42" fill="none" xmlns="http://www.w3.org/2000/svg">
<path d="M23.1579 42V34.4029L35.9526 20.8147C36.3 20.4441 36.6859 20.1765 37.1105 20.0118C37.5351 19.8471 37.9596 19.7647 38.3842 19.7647C38.8474 19.7647 39.2912 19.8578 39.7158 20.0439C40.1403 20.23 40.5263 20.5075 40.8737 20.8765L43.0158 23.1618C43.3245 23.5324 43.5662 23.9441 43.7406 24.3971C43.9151 24.85 44.0015 25.3029 44 25.7559C44 26.2088 43.9228 26.6725 43.7684 27.1468C43.614 27.6212 43.3631 28.0428 43.0158 28.4118L30.2789 42H23.1579ZM0 39.5294V32.6118C0 31.2118 0.338106 29.9254 1.01432 28.7527C1.69053 27.58 2.58751 26.684 3.70526 26.0647C6.09824 24.7882 8.52982 23.8313 11 23.1939C13.4702 22.5565 15.9789 22.2369 18.5263 22.2353C19.9544 22.2353 21.3631 22.3284 22.7526 22.5145C24.1421 22.7006 25.5316 22.9987 26.921 23.4088L18.5263 32.3647V39.5294H0ZM38.3842 28.1647L40.5263 25.7559L38.3842 23.4706L36.1842 25.8176L38.3842 28.1647ZM18.5263 19.7647C15.9789 19.7647 13.7982 18.7971 11.9842 16.8618C10.1702 14.9265 9.26315 12.6 9.26315 9.88235C9.26315 7.16471 10.1702 4.83824 11.9842 2.90294C13.7982 0.967647 15.9789 0 18.5263 0C21.0737 0 23.2544 0.967647 25.0684 2.90294C26.8824 4.83824 27.7895 7.16471 27.7895 9.88235C27.7895 12.6 26.8824 14.9265 25.0684 16.8618C23.2544 18.7971 21.0737 19.7647 18.5263 19.7647Z" fill="#8FE1EF"/>
</svg>
